# xmcd
#
# Track frame offsets:
#	150
#	15190
#	29714
#	46142
#	64810
#	83627
#	100937
#	119508
#	134858
#	156871
#	172838
#	189764
#	207072
#	227546
#	241331
#
# Disc length: 3431 seconds
#
# Revision: 1
# Processed by: cddbd v1.5.2PL0 Copyright (c) Steve Scherf et al.
# Submitted via: audiograbber 1.83.01
#
DISCID=ba0d650f
DTITLE=Various Artist - CB-E9-07
DYEAR=2008
DGENRE=Karaoke
TTITLE0=Toby Keith - She's A Hottie
TTITLE1=Miranda Lambert - Gunpowder and Lead
TTITLE2=Josh Turner - Firecracker
TTITLE3=Brad Paisley - Online
TTITLE4=Reba McEntire and Skip Ewing - Every Other Weekend
TTITLE5=Gary Allan - Watching Airplanes
TTITLE6=Chuck Wicks - Stealing Cinderella
TTITLE7=Gretchen Wilson - Don't Do Me No Good
TTITLE8=Alan Jackson - Small Town Southern Man
TTITLE9=Dierks Bentley - Free And Easy (Down The Road I Go)
TTITLE10=Heidi Newfield - Johnny and June
TTITLE11=Keith Anderson - I Still Miss You
TTITLE12=Kenny Chesney - Don't Blink
TTITLE13=Jessica Simpson - Come On Over
TTITLE14=George Strait - I Saw God Today
EXTD=
EXTT0=
EXTT1=
EXTT2=
EXTT3=
EXTT4=
EXTT5=
EXTT6=
EXTT7=
EXTT8=
EXTT9=
EXTT10=
EXTT11=
EXTT12=
EXTT13=
EXTT14=
PLAYORDER=
